# xmcd CD database file
#
# Track frame offsets:
#	150
#	12677
#	27849
#	40263
#	53527
#	66704
#	79239
#	92730
#	105416
#	117547
#	130034
#	142649
#	155381
#	168223
#	180677
#	194238
#
# Disc length: 2739 seconds
#
# Revision: 0
# Processed by: cddbd v1.5PL3 Copyright (c) Steve Scherf et al.
# Submitted via: CDex 1.40Release
#
DISCID=d80ab110
DTITLE=John lee Williamson - Blues Legends
DYEAR=1900
DGENRE=Blues
TTITLE0=I have got to go
TTITLE1=Love me baby
TTITLE2=Check up on my baby blues
TTITLE3=Stop Breaking Down
TTITLE4=Hoodoo Hoodoo
TTITLE5=Shake the boogie
TTITLE6=Better cut that out
TTITLE7=Black gal blues
TTITLE8=Bad Luck Blues
TTITLE9=Good Gal Blues
TTITLE10=Good Gravy
TTITLE11=Train Fare Blues
TTITLE12=Welfare Store Blues
TTITLE13=My Black Name Blues
TTITLE14=Skinny Woman
TTITLE15=Black Panther Blues
EXTD=ID3G: 0
EXTT0=
EXTT1=
EXTT2=
EXTT3=
EXTT4=
EXTT5=
EXTT6=
EXTT7=
EXTT8=
EXTT9=
EXTT10=
EXTT11=
EXTT12=
EXTT13=
EXTT14=
EXTT15=
PLAYORDER=
